; OM File Header - Saved 2021/07/29 18:31:07
; (6.2 :patc (om-make-point 137 28) (om-make-point 0 0) (om-make-point 671 781) "" 183 0 "2021/07/17 17:46:00" "2021/07/29 16:26:02")
; End File Header
(in-package :om)(load-lib-for (quote ("OMCS")))(setf *om-current-persistent* (om-load-patch1 "tut-03" (quote ((let ((box (om-load-boxcomment "comment" (om-make-point 111 33) (quote "<- Heuristic rule") "" (om-make-point 329 406) nil (om-make-color 0 0 0) (om-make-font "Liberation Sans" 12 :family "Liberation Sans" :style (quote (:plain)) :mode (quote nil))))) (when (fboundp (quote set-active)) (set-active box nil)) box) (let ((box (om-load-boxcomment "comment 2" (om-make-point 321 41) (quote "Symetrical 12 tone chord") "" (om-make-point 55 35) nil (om-make-color 0 0 0) (om-make-font "Liberation Sans" 24.0D0 :family "Liberation Sans" :style (quote (:plain)) :mode (quote nil))))) (when (fboundp (quote set-active)) (set-active box nil)) box) (let ((box (om-load-boxcomment "comment" (om-make-point 126 31) (quote "SEARCH SPACE") "" (om-make-point 79 214) nil (om-make-color 0 0 0) (om-make-font "Liberation Sans" 12 :family "Liberation Sans" :style (quote (:plain)) :mode (quote nil))))) (when (fboundp (quote set-active)) (set-active box nil)) box) (let ((box (om-load-boxcomment "comment" (om-make-point 190 29) (quote "- - - - - - - - - - RULES - - - - - - - - -  ") "" (om-make-point 191 120) nil (om-make-color 0 0 0) (om-make-font "Liberation Sans" 12 :family "Liberation Sans" :style (quote (:plain)) :mode (quote nil))))) (when (fboundp (quote set-active)) (set-active box nil)) box) (let ((box (om-load-boxcomment "comment" (om-make-point 299 64) (quote "From \"The Musical Fundamentals of Computer Assisted Composition\" Book, p.67 and p.120, $by Orjan Sandred") "" (om-make-point 321 468) nil (om-make-color 0 0 0) (om-make-font "Verdana" 12 :family "Verdana" :style (quote (:plain)) :mode (quote nil))))) (when (fboundp (quote set-active)) (set-active box nil)) box) (let ((box (om-load-editor-box1 "CHORD-SEQ" (quote chord-seq) (quote ((om-load-inputfun (quote input-funbox) "object" "self" nil) (om-load-inputfun (quote input-funbox) "pitches (mc): list or list of lists" "lmidic" (list 6000)) (om-load-inputfun (quote input-funbox) "onsets (ms): list" "lonset" (list 0 300)) (om-load-inputfun (quote input-funbox) "durations (ms): list or list of lists" "ldur" (list 1000)) (om-load-inputfun (quote input-funbox) "velocities (0-127): list or list of lists" "lvel" (list 100)) (om-load-inputfun (quote input-funbox) "offsets (ms): list or list of lists" "loffset" (list 0)) (om-load-inputfun (quote input-funbox) "MIDI channels (1-16): list or list of lists" "lchan" (list 1)) (om-load-inputfun (quote input-funbox) "relative chords duration (0-100)" "legato" 0))) (om-make-point 79 604) (om-make-point 399 145) (let ((newobj (when (find-class (quote chord-seq) nil) (make-instance (quote chord-seq) :lmidic (quote ((4800) (5400) (5900) (6000) (6500) (5900) (5800) (6300) (5700) (6200) (6800) (6900) (7500) (7400) (6800) (6300) (5700) (5200) (4600))) :lonset (quote (0 300 600 900 1200 1500 1800 2100 2400 2700 3000 3300 3600 3900 4200 4500 4800 5100 5400 6400)) :ldur (quote ((1000) (1000) (1000) (1000) (1000) (1000) (1000) (1000) (1000) (1000) (1000) (1000) (1000) (1000) (1000) (1000) (1000) (1000) (1000))) :lvel (quote ((100) (100) (100) (100) (100) (100) (100) (100) (100) (100) (100) (100) (100) (100) (100) (100) (100) (100) (100))) :loffset (quote ((0) (0) (0) (0) (0) (0) (0) (0) (0) (0) (0) (0) (0) (0) (0) (0) (0) (0) (0))) :lchan (quote ((1) (1) (1) (1) (1) (1) (1) (1) (1) (1) (1) (1) (1) (1) (1) (1) (1) (1) (1))) :legato 0)))) (load-port-info newobj (quote ((0) (0) (0) (0) (0) (0) (0) (0) (0) (0) (0) (0) (0) (0) (0) (0) (0) (0) (0)))) (init-mus-color newobj (quote nil)) (set-extra-pairs newobj (quote nil)) (set-patch-pairs newobj (quote ((nil (om-load-patch-abs1 "patch" (quote nil) (quote nil) 6.2 nil "" (om-make-point 200 200) (om-make-point 400 500)))))) (set-name newobj nil) (set-tonalite newobj nil) newobj) nil nil (pairlis (quote (scale show-stems cursor-mode obj-mode score-mode winpos winsize mode grillestep notechancolor? zoom player inport outport deltapict cmnpref staff fontsize approx)) (list nil (quote t) (quote :normal) 1 0 (om-make-point 0 0) (om-make-point 508 306) 0 1000 nil 1 (quote :midi-player) nil nil (om-make-point 0 0) (let ((newobj (make-instance (quote edition-values)))) (setf (paper-size newobj) (om-make-point 600 800)) (setf (top-margin newobj) 2) (setf (left-margin newobj) 1) (setf (right-margin newobj) 1) (setf (bottom-margin newobj) 1) (setf (orientation newobj) nil) (setf (scale newobj) nil) (setf (system-space newobj) (quote (1))) (setf (system-color newobj) (quote nil)) (setf (line-space newobj) 1) (setf (title newobj) nil) (setf (show-title? newobj) nil) (setf (show-page? newobj) nil) (setf (sheet-id newobj) nil) (setf (page-mode newobj) nil) newobj) (quote gf) 24 2)) t nil nil nil))) (when (fboundp (quote set-active)) (set-active box nil)) box) (let ((box (om-load-boxcall (quote lispfun) "CAR" (quote car) (quote ((om-load-inputfun (quote input-funbox) "X" "X" nil))) (om-make-point 251 541) nil nil nil nil 1))) (when (fboundp (quote set-active)) (set-active box nil)) box) (let ((box (om-load-boxcall (quote bastype) "aux 5" (quote t) (quote nil) (om-make-point 160 253) (om-make-point 31 30) 100 "100" nil))) (when (fboundp (quote set-active)) (set-active box nil)) box) (let ((box (om-load-boxcall (quote bastype) "aux 4" (quote t) (quote nil) (om-make-point 120 253) (om-make-point 38 30) 8400 "8400" nil))) (when (fboundp (quote set-active)) (set-active box nil)) box) (let ((box (om-load-boxcall (quote bastype) "aux 3" (quote t) (quote nil) (om-make-point 79 253) (om-make-point 39 30) 3600 "3600" nil))) (when (fboundp (quote set-active)) (set-active box nil)) box) (let ((box (om-load-boxcall (quote bastype) "aux 2" (quote t) (quote nil) (om-make-point 443 134) (om-make-point 34 30) 19 "19" nil))) (when (fboundp (quote set-active)) (set-active box nil)) box) (let ((box (om-load-boxcall (quote bastype) "aux" (quote t) (quote nil) (om-make-point 172 338) (om-make-point 34 30) 19 "19" nil))) (when (fboundp (quote set-active)) (set-active box nil)) box) (let ((box (om-load-boxcall (quote genfun) "WILDCARD-RULE 3" (quote omcs::wildcard-rule) (quote ((om-load-inputfun (quote input-funbox) "function" "FUNCTION" nil))) (om-make-point 292 225) nil nil nil nil 1))) (when (fboundp (quote set-active)) (set-active box nil)) box) (let ((box (om-load-boxcall (quote abstraction) "no repetition" (om-load-patch-abs1 "no repetition" (quote ((let ((box (om-load-boxcomment "comment" (om-make-point 100 60) (quote "No consecutive same interval") "" (om-make-point 184 237) nil (om-make-color 0 0 0) (om-make-font "Liberation Sans" 12 :family "Liberation Sans" :style (quote (:plain)) :mode (quote nil))))) (when (fboundp (quote set-active)) (set-active box nil)) box) (let ((box (om-load-boxcall (quote lispfun) "/=" (quote /=) (quote ((om-load-inputfun (quote input-funbox) "NUM" "NUM" nil) (om-load-inputfun (quote input-funbox) "add-input" "add-input" nil))) (om-make-point 131 243) nil nil nil nil 1))) (when (fboundp (quote set-active)) (set-active box nil)) box) (let ((box (om-load-boxcall (quote genfun) "OM-" (quote om-) (quote ((om-load-inputfun (quote input-funbox) "number or list" "ARG1" 0) (om-load-inputfun (quote input-funbox) "number or list" "ARG2" 1))) (om-make-point 178 114) nil nil nil nil 1))) (when (fboundp (quote set-active)) (set-active box nil)) box) (let ((box (om-load-boxcall (quote genfun) "OM-ABS" (quote om-abs) (quote ((om-load-inputfun (quote input-funbox) "number or tree" "SELF" 1))) (om-make-point 160 157) nil nil nil nil 1))) (when (fboundp (quote set-active)) (set-active box nil)) box) (let ((box (om-load-boxin "input 3" 2 (om-make-point 213 31) "" nil nil nil))) (when (fboundp (quote set-active)) (set-active box nil)) box) (let ((box (om-load-boxcall (quote genfun) "OM-ABS" (quote om-abs) (quote ((om-load-inputfun (quote input-funbox) "number or tree" "SELF" 1))) (om-make-point 82 156) nil nil nil nil 1))) (when (fboundp (quote set-active)) (set-active box nil)) box) (let ((box (om-load-boxout "output" 0 (om-make-point 120 293) (quote ((om-load-inputfun (quote input-funbox) "" "out" nil))) nil nil))) (when (fboundp (quote set-active)) (set-active box nil)) box) (let ((box (om-load-boxcall (quote genfun) "OM-" (quote om-) (quote ((om-load-inputfun (quote input-funbox) "number or list" "ARG1" 0) (om-load-inputfun (quote input-funbox) "number or list" "ARG2" 1))) (om-make-point 100 113) nil nil nil nil 1))) (when (fboundp (quote set-active)) (set-active box nil)) box) (let ((box (om-load-boxin "input 2" 1 (om-make-point 123 32) "" nil nil nil))) (when (fboundp (quote set-active)) (set-active box nil)) box) (let ((box (om-load-boxin "input" 0 (om-make-point 62 32) "" nil nil nil))) (when (fboundp (quote set-active)) (set-active box nil)) box))) (quote ((5 0 1 0 nil 0) (3 0 1 1 nil 0) (8 0 2 0 nil 0) (4 0 2 1 nil 0) (2 0 3 0 nil 0) (7 0 5 0 nil 0) (1 0 6 0 nil 0) (9 0 7 0 nil 0) (8 0 7 1 nil 0))) 6.2 nil "" (om-make-point 0 0) (om-make-point 402 388)) (quote ((om-load-inputfun (quote input-funbox) "" "input" nil) (om-load-inputfun (quote input-funbox) "" "input 2" nil) (om-load-inputfun (quote input-funbox) "" "input 3" nil))) (om-make-point 295 149) nil (list nil) "l" "no repetition"))) (when (fboundp (quote set-active)) (set-active box nil)) box) (let ((box (om-load-boxcall (quote genfun) "WILDCARD-RULE 2" (quote omcs::wildcard-rule) (quote ((om-load-inputfun (quote input-funbox) "function" "FUNCTION" nil))) (om-make-point 199 225) nil nil nil nil 1))) (when (fboundp (quote set-active)) (set-active box nil)) box) (let ((box (om-load-boxcall (quote abstraction) "allowed intervals" (om-load-patch-abs1 "allowed intervals" (quote ((let ((box (om-load-boxcomment "comment" (om-make-point 168 43) (quote "Only 2nd minor, fourth and augmented fourth allowed") "" (om-make-point 173 148) nil (om-make-color 0 0 0) (om-make-font "Liberation Sans" 12 :family "Liberation Sans" :style (quote (:plain)) :mode (quote nil))))) (when (fboundp (quote set-active)) (set-active box nil)) box) (let ((box (om-load-boxcall (quote genfun) "OM-ABS" (quote om-abs) (quote ((om-load-inputfun (quote input-funbox) "number or tree" "SELF" 1))) (om-make-point 122 151) nil nil nil nil 1))) (when (fboundp (quote set-active)) (set-active box nil)) box) (let ((box (om-load-boxcall (quote bastype) "aux" (quote t) (quote nil) (om-make-point 167 204) (om-make-point 101 30) (list 100 500 600) "(100 500 600)" nil))) (when (fboundp (quote set-active)) (set-active box nil)) box) (let ((box (om-load-boxcall (quote lispfun) "MEMBER" (quote member) (quote ((om-load-inputfun (quote input-funbox) "ITEM" "ITEM" nil) (om-load-inputfun (quote input-funbox) "LIST" "LIST" nil))) (om-make-point 126 258) nil nil nil nil 1))) (when (fboundp (quote set-active)) (set-active box nil)) box) (let ((box (om-load-boxout "output" 0 (om-make-point 130 330) (quote ((om-load-inputfun (quote input-funbox) "" "out" nil))) nil nil))) (when (fboundp (quote set-active)) (set-active box nil)) box) (let ((box (om-load-boxcall (quote genfun) "OM-" (quote om-) (quote ((om-load-inputfun (quote input-funbox) "number or list" "ARG1" 0) (om-load-inputfun (quote input-funbox) "number or list" "ARG2" 1))) (om-make-point 136 108) nil nil nil nil 1))) (when (fboundp (quote set-active)) (set-active box nil)) box) (let ((box (om-load-boxin "input 2" 1 (om-make-point 159 27) "" nil nil nil))) (when (fboundp (quote set-active)) (set-active box nil)) box) (let ((box (om-load-boxin "input" 0 (om-make-point 98 27) "" nil nil nil))) (when (fboundp (quote set-active)) (set-active box nil)) box))) (quote ((5 0 1 0 nil 0) (1 0 3 0 nil 0) (2 0 3 1 nil 0) (3 0 4 0 nil 0) (7 0 5 0 nil 0) (6 0 5 1 nil 0))) 6.2 nil "" (om-make-point 0 0) (om-make-point 396 430)) (quote ((om-load-inputfun (quote input-funbox) "" "input" nil) (om-load-inputfun (quote input-funbox) "" "input 2" nil))) (om-make-point 191 149) nil (list nil) "l" "allowed intervals"))) (when (fboundp (quote set-active)) (set-active box nil)) box) (let ((box (om-load-boxcall (quote lispfun) "LIST 2" (quote list) (quote ((om-load-inputfun (quote input-funbox) "add-input" "add-input" nil) (om-load-inputfun (quote input-funbox) "add-input" "add-input" nil))) (om-make-point 255 396) nil nil nil nil 1))) (when (fboundp (quote set-active)) (set-active box nil)) box) (let ((box (om-load-boxcall (quote lispfun) "LIST" (quote list) (quote ((om-load-inputfun (quote input-funbox) "add-input" "add-input" nil))) (om-make-point 300 397) nil nil nil nil 1))) (when (fboundp (quote set-active)) (set-active box nil)) box) (let ((box (om-load-boxcall (quote genfun) "REPEAT-N" (quote repeat-n) (quote ((om-load-inputfun (quote input-funbox) "something" "SELF" nil) (om-load-inputfun (quote input-funbox) "times" "N" 19))) (om-make-point 122 372) nil nil nil nil 1))) (when (fboundp (quote set-active)) (set-active box nil)) box) (let ((box (om-load-boxcall (quote genfun) "ARITHM-SER" (quote arithm-ser) (quote ((om-load-inputfun (quote input-funbox) "begin" "BEGIN" 3400) (om-load-inputfun (quote input-funbox) "end " "END" 8400) (om-load-inputfun (quote input-funbox) "step" "STEP" 100))) (om-make-point 109 298) nil nil nil nil 1))) (when (fboundp (quote set-active)) (set-active box nil)) box) (let ((box (om-load-boxcall (quote genfun) "OM-SAMPLE" (quote om-sample) (quote ((om-load-inputfun (quote input-funbox) "object to resample" "SELF" nil) (om-load-inputfun (quote input-funbox) "number of samples (int) or sample rate (float)" "SAMPLE-RATE" 19))) (om-make-point 399 164) nil nil nil nil 3))) (when (fboundp (quote set-active)) (set-active box nil)) box) (let ((box (om-load-editor-box1 "BPF" (quote bpf) (quote ((om-load-inputfun (quote input-funbox) "object" "self" nil) (om-load-inputfun (quote input-funbox) "X coordinates (list)" "x-points" (list 0 100)) (om-load-inputfun (quote input-funbox) "Y coordinates (list)" "y-points" (list 6000 10000)) (om-load-inputfun (quote input-funbox) "precision (integer) [0 - 10]" "decimals" 0))) (om-make-point 396 23) (om-make-point 123 102) (let ((newobj (when (find-class (quote bpf) nil) (let ((newbpf (simple-bpf-from-list (quote (0 3 6 12 17 22 28 36 43 51 58 68 75 80 85)) (quote (4800 5171 5601 6017 6300 6025 5879 5800 6256 6956 7635 6564 5735 5081 4800)) (quote bpf) 0))) (setf (bpfcolor newbpf) (om-make-color 0 0 0)) (set-name newbpf "BPF") newbpf)))) (when newobj) newobj) "x" nil (pairlis (quote (winsize winpos picture)) (list (om-make-point 1154 724) (om-make-point 10 40) nil)) t nil nil nil))) (when (fboundp (quote set-active)) (set-active box nil)) box) (let ((box (om-load-boxcall (quote abstraction) "mypatch1" (om-load-patch-abs1 "mypatch1" (quote ((let ((box (om-load-boxcomment "comment" (om-make-point 144 84) (quote "Heuristic rule: Will force the solution to follow the Bpf's profile") "" (om-make-point 170 240) nil (om-make-color 0 0 0) (om-make-font "Liberation Sans" 12 :family "Liberation Sans" :style (quote (:plain)) :mode (quote nil))))) (when (fboundp (quote set-active)) (set-active box nil)) box) (let ((box (om-load-boxcall (quote bastype) "aux 2" (quote t) (quote nil) (om-make-point 196 75) (om-make-point 26 30) 1 "1" nil))) (when (fboundp (quote set-active)) (set-active box nil)) box) (let ((box (om-load-boxcall (quote bastype) "aux" (quote t) (quote nil) (om-make-point 70 278) (om-make-point 27 30) 0 "0" nil))) (when (fboundp (quote set-active)) (set-active box nil)) box) (let ((box (om-load-boxcall (quote genfun) "OM- 3" (quote om-) (quote ((om-load-inputfun (quote input-funbox) "number or list" "ARG1" 0) (om-load-inputfun (quote input-funbox) "number or list" "ARG2" 1))) (om-make-point 120 331) nil nil nil nil 1))) (when (fboundp (quote set-active)) (set-active box nil)) box) (let ((box (om-load-boxout "output" 0 (om-make-point 110 374) (quote ((om-load-inputfun (quote input-funbox) "" "out" nil))) nil nil))) (when (fboundp (quote set-active)) (set-active box nil)) box) (let ((box (om-load-boxcall (quote genfun) "OM-ABS" (quote om-abs) (quote ((om-load-inputfun (quote input-funbox) "number or tree" "SELF" 1))) (om-make-point 114 256) nil nil nil nil 1))) (when (fboundp (quote set-active)) (set-active box nil)) box) (let ((box (om-load-boxcall (quote genfun) "OM- 2" (quote om-) (quote ((om-load-inputfun (quote input-funbox) "number or list" "ARG1" 0) (om-load-inputfun (quote input-funbox) "number or list" "ARG2" 1))) (om-make-point 128 209) nil nil nil nil 1))) (when (fboundp (quote set-active)) (set-active box nil)) box) (let ((box (om-load-boxcall (quote lispfun) "NTH" (quote nth) (quote ((om-load-inputfun (quote input-funbox) "ORIG-N" "ORIG-N" nil) (om-load-inputfun (quote input-funbox) "ORIG-LIST" "ORIG-LIST" nil))) (om-make-point 157 148) nil nil nil nil 1))) (when (fboundp (quote set-active)) (set-active box nil)) box) (let ((box (om-load-boxcall (quote genfun) "OM-" (quote om-) (quote ((om-load-inputfun (quote input-funbox) "number or list" "ARG1" 0) (om-load-inputfun (quote input-funbox) "number or list" "ARG2" 1))) (om-make-point 158 110) nil nil nil nil 1))) (when (fboundp (quote set-active)) (set-active box nil)) box) (let ((box (om-load-boxcall (quote genfun) "CURRENT-INDEX" (quote omcs::current-index) (quote nil) (om-make-point 121 12) nil nil nil nil 1))) (when (fboundp (quote set-active)) (set-active box nil)) box) (let ((box (om-load-boxin "input 2" 1 (om-make-point 226 69) "" nil nil nil))) (when (fboundp (quote set-active)) (set-active box nil)) box) (let ((box (om-load-boxin "input" 0 (om-make-point 17 31) "" nil nil nil))) (when (fboundp (quote set-active)) (set-active box nil)) box))) (quote ((2 0 3 0 nil 0) (5 0 3 1 nil 0) (3 0 4 0 nil 0) (6 0 5 0 nil 0) (11 0 6 0 nil 0) (7 0 6 1 nil 0) (8 0 7 0 nil 0) (10 0 7 1 nil 0) (9 0 8 0 nil 0) (1 0 8 1 nil 0))) 6.2 nil "" (om-make-point 0 0) (om-make-point 418 487)) (quote ((om-load-inputfun (quote input-funbox) "" "input" nil) (om-load-inputfun (quote input-funbox) "" "input 2" nil))) (om-make-point 406 232) nil (list nil) "l" "mypatch1"))) (when (fboundp (quote set-active)) (set-active box nil)) box) (let ((box (om-load-boxcall (quote genfun) "WILDCARD-RULE" (quote omcs::wildcard-rule) (quote ((om-load-inputfun (quote input-funbox) "function" "FUNCTION" nil))) (om-make-point 398 309) nil nil nil nil 1))) (when (fboundp (quote set-active)) (set-active box nil)) box) (let ((box (om-load-boxcall (quote genfun) "PMC-ENGINE" (quote omcs::pmc-engine) (quote ((om-load-inputfun (quote input-funbox) "s-space" "S-SPACE" nil) (om-load-inputfun (quote input-funbox) "rules" "RULES" nil) (om-load-inputkeyword (quote input-keyword) "heuristic-rules" "HEURISTIC-RULES" (quote :heuristic-rules) nil nil))) (om-make-point 234 456) nil nil nil nil 1))) (when (fboundp (quote set-active)) (set-active box nil)) box))) (quote ((6 0 5 1 nil 0) (24 0 6 0 nil 0) (13 0 12 0 nil 0) (15 0 14 0 nil 0) (14 0 16 0 nil 0) (12 0 16 1 nil 0) (23 0 17 0 nil 0) (19 0 18 0 nil 0) (11 0 18 1 nil 0) (9 0 19 0 nil 0) (8 0 19 1 nil 0) (7 0 19 2 nil 0) (21 0 20 0 nil 0) (10 0 20 1 nil 0) (20 2 22 1 nil 0) (22 0 23 0 nil 0) (18 0 24 0 nil 0) (16 0 24 1 nil 0) (17 0 24 2 nil 0))) nil 6.2))
