; OM File Header - Saved 2021/07/29 18:31:07
; (6.2 :patc (om-make-point 215 19) (om-make-point 0 0) (om-make-point 574 440) "" 183 0 "2021/07/18 14:49:00" "2021/07/29 18:08:58")
; End File Header
(in-package :om)(load-lib-for (quote ("OMCS")))(setf *om-current-persistent* (om-load-patch1 "03-all permutations" (quote ((let ((box (om-load-boxcomment "comment" (om-make-point 110 35) (quote "rnd? by default = t$") "" (om-make-point 385 258) nil (om-make-color 0 0 0) (om-make-font "Liberation Sans" 12 :family "Liberation Sans" :style (quote (:plain)) :mode (quote nil))))) (when (fboundp (quote set-active)) (set-active box nil)) box) (let ((box (om-load-boxcomment "comment" (om-make-point 77 29) (quote "sols-mode =$all solutions") "" (om-make-point 297 253) nil (om-make-color 0 0 0) (om-make-font "Liberation Sans" 12 :family "Liberation Sans" :style (quote (:plain)) :mode (quote nil))))) (when (fboundp (quote set-active)) (set-active box nil)) box) (let ((box (om-load-boxcomment "comment" (om-make-point 126 31) (quote "SEARCH SPACE") "" (om-make-point 68 147) nil (om-make-color 0 0 0) (om-make-font "Liberation Sans" 12 :family "Liberation Sans" :style (quote (:plain)) :mode (quote nil))))) (when (fboundp (quote set-active)) (set-active box nil)) box) (let ((box (om-load-boxcomment "comment" (om-make-point 188 42) (quote "- - - - - - - - - - RULES - - - - - - - - -  ") "" (om-make-point 171 73) nil (om-make-color 0 0 0) (om-make-font "Liberation Sans" 12 :family "Liberation Sans" :style (quote (:plain)) :mode (quote nil))))) (when (fboundp (quote set-active)) (set-active box nil)) box) (let ((box (om-load-boxcomment "comment" (om-make-point 187 45) (quote "All permutations") "" (om-make-point 170 6) nil (om-make-color 0 0 0) (om-make-font "Liberation Sans" 24.0D0 :family "Liberation Sans" :style (quote (:plain)) :mode (quote nil))))) (when (fboundp (quote set-active)) (set-active box nil)) box) (let ((box (om-load-boxcall (quote lispfun) "LIST" (quote list) (quote ((om-load-inputfun (quote input-funbox) "add-input" "add-input" nil))) (om-make-point 243 282) nil nil nil nil 1))) (when (fboundp (quote set-active)) (set-active box nil)) box) (let ((box (om-load-boxcall (quote abstraction) "no dups" (om-load-patch-abs1 "no dups" (quote ((let ((box (om-load-boxcall (quote lispfun) "NOT" (quote not) (quote ((om-load-inputfun (quote input-funbox) "X" "X" nil))) (om-make-point 154 249) nil nil nil nil 1))) (when (fboundp (quote set-active)) (set-active box nil)) box) (let ((box (om-load-boxcall (quote lispfun) "MEMBER" (quote member) (quote ((om-load-inputfun (quote input-funbox) "ITEM" "ITEM" nil) (om-load-inputfun (quote input-funbox) "LIST" "LIST" nil))) (om-make-point 145 186) nil nil nil nil 1))) (when (fboundp (quote set-active)) (set-active box nil)) box) (let ((box (om-load-boxin "input" 0 (om-make-point 103 109) "" nil nil nil))) (when (fboundp (quote set-active)) (set-active box nil)) box) (let ((box (om-load-boxcall (quote lispfun) "CDR" (quote cdr) (quote ((om-load-inputfun (quote input-funbox) "X" "X" nil))) (om-make-point 186 122) nil nil nil nil 1))) (when (fboundp (quote set-active)) (set-active box nil)) box) (let ((box (om-load-boxcall (quote genfun) "REV-PARTIAL-SOLUTION" (quote omcs::rev-partial-solution) (quote nil) (om-make-point 153 26) nil nil nil nil 1))) (when (fboundp (quote set-active)) (set-active box nil)) box) (let ((box (om-load-boxout "output" 0 (om-make-point 147 302) (quote ((om-load-inputfun (quote input-funbox) "" "out" nil))) nil nil))) (when (fboundp (quote set-active)) (set-active box nil)) box))) (quote ((1 0 0 0 nil 0) (2 0 1 0 nil 0) (3 0 1 1 nil 0) (4 0 3 0 nil 0) (0 0 5 0 nil 0))) 6.2 nil "" (om-make-point 0 0) (om-make-point 376 404)) (quote ((om-load-inputfun (quote input-funbox) "" "input" nil))) (om-make-point 237 113) nil (list nil) "l" "no dups"))) (when (fboundp (quote set-active)) (set-active box nil)) box) (let ((box (om-load-boxcall (quote genfun) "WILDCARD-RULE" (quote omcs::wildcard-rule) (quote ((om-load-inputfun (quote input-funbox) "function" "FUNCTION" nil))) (om-make-point 224 197) nil nil nil nil 1))) (when (fboundp (quote set-active)) (set-active box nil)) box) (let ((box (om-load-boxcall (quote bastype) "aux 3" (quote t) (quote nil) (om-make-point 307 296) (om-make-point 33 30) (quote :all) ":all" nil))) (when (fboundp (quote set-active)) (set-active box nil)) box) (let ((box (om-load-boxcall (quote genfun) "PMC-ENGINE" (quote omcs::pmc-engine) (quote ((om-load-inputfun (quote input-funbox) "s-space" "S-SPACE" nil) (om-load-inputfun (quote input-funbox) "rules" "RULES" nil) (om-load-inputkeyword (quote input-keyword) "sols-mode" "sols-mode" (quote :sols-mode) (quote :once) nil))) (om-make-point 158 348) (om-make-point 191 75) nil nil nil 1))) (when (fboundp (quote set-active)) (set-active box nil)) box) (let ((box (om-load-boxcall (quote bastype) "aux 2" (quote t) (quote nil) (om-make-point 150 186) (om-make-point 26 30) 4 "4" nil))) (when (fboundp (quote set-active)) (set-active box nil)) box) (let ((box (om-load-boxcall (quote bastype) "aux" (quote t) (quote nil) (om-make-point 69 186) (om-make-point 61 30) (list 0 1 4 6) "(0 1 4 6)" nil))) (when (fboundp (quote set-active)) (set-active box nil)) box) (let ((box (om-load-boxcall (quote genfun) "REPEAT-N" (quote repeat-n) (quote ((om-load-inputfun (quote input-funbox) "something" "SELF" nil) (om-load-inputfun (quote input-funbox) "times" "N" 0))) (om-make-point 112 220) nil nil nil nil 1))) (when (fboundp (quote set-active)) (set-active box nil)) box))) (quote ((7 0 5 0 nil 0) (6 0 7 0 nil 0) (12 0 9 0 nil 0) (5 0 9 1 nil 0) (8 0 9 2 nil 0) (11 0 12 0 nil 0) (10 0 12 1 nil 0))) nil 6.2))
